<svg version="1.2" xmlns="http://www.w3.org/2000/svg" viewBox="0 0 1024 1024" width="1024" height="1024"><defs><linearGradient id="P" gradientUnits="userSpaceOnUse"/><linearGradient id="g1" x2="1" href="#P" gradientTransform="matrix(-9.403,-0.651,7.869,-113.637,10.288,758.582)"><stop stop-color="#4a7198"/><stop offset="1" stop-color="#6c9bbb"/></linearGradient><linearGradient id="g2" x2="1" href="#P" gradientTransform="matrix(5.392,24.06,-41.148,9.221,129.554,391.47)"><stop stop-color="#487899"/><stop offset="1" stop-color="#7199b7"/></linearGradient></defs><style>.a{fill:#1d5788}.b{fill:#fefefe}.c{fill:#dce7ec}.d{fill:#467197}.e{fill:#97b3c5}.f{fill:url(#g1)}.g{fill:url(#g2)}</style><path class="a" d="m0 0h62.6 900.7 60.7v62.2 900.2 61.6h-59.6-502.1-21-9.2-19.8-124.4-18.7-74.7-17-116.2-61.3v-60.2-83.8-351.8-7.3-9.3-107.6-43.6-298.2z"/><path class="b" d="m462.3 1024h-21-9.2-19.8-124.4-18.7-74.7-17-116.2-61.3v-60.2-83.8-351.8-7.3-9.3-107.6-43.6c7.9 11.5 15.6 36.7 20.9 50.1 12.1 30.4 22.5 62.7 28.9 94.8 2.3 11.3 3.1 22.5 7.6 33.3 5 12.9 14.9 31.3 25.2 40.7-3.1-10.2-3.2-18.2-3-28.8 0.6-29.7 8.3-58.8 22.4-85 3.9-7.2 7.2-12.8 10.5-20.5-8.1 6.1-14.7 11.8-21.3 19.6-2.9 3.6-10.1 16.3-15.6 14.5-10.1-3.2-7.9-11.9-5.1-19.5 7.8-27.6 25.8-48.8 46.7-67.6 6.4-5.9 15.6-12.4 21.6-18.3-2.5-10.8-8.3-26-12.3-35.8-5.6-13.5-37-83.5-34.7-93.6 2.2-3.2 7.3-3.1 10.8-3.1 4.3 10.2 7.1 18.7 10.6 29.2 34.5 3.6 69.7 10.5 104 15.7 14.4 2.2 25.3 5.1 40.2 6.3-1.3-4.4-3-9.5-4.2-14 1.5-4.1 2.7-6.6 7.2-8.4 9.1-3.7 22.4-4.7 31.6-7.9 3.5-7.2 4.9-15.8 7.2-23.5 1.6-5.3 2.4-12.9 7.5-16.1 2.5-1.6 9 0.2 11.4 1.6 6.8 3.6 13.8 7.8 20.5 11.6 5.6 3.2 11.1 5.5 16.8 8.7 6.9 3.8 13.7 9.1 21.4 11.1 3.4 0.9 8.8 0.1 12.4 0.6 2.8 0.3 6.4 2.5 8.9 2.7 17.3 1.7 34.8 1.2 52.1 1.3 6.2 0 12.3-1 18.4-1.1 1.5 0 5.5 2.2 7 3.1 1.6 10.7 1 19.2-5.7 28.2 8.1 4.9 16.3 9.8 24.4 14.7 13.7 8.4 27.7 21.3 37.8 33.7q5.5 6.8 10.6 13.9c2.8 3.9 9.2 15.2 12.6 17.2 16 9.3 32.6 18 48.8 27.1q56.3 31.8 111.6 65.6c25.2 15.5 50.5 30.9 72.8 50.2 19.7 17-2.7 33.8-18.8 39.4-29.2 10.3-61.1 15.7-91.2 22.9-8 1.9-10.8 1.1-18 6.4 0.6 17.2-1.9 23-4 38.4-2.5 18-6.3 36.9-8.3 54.7-9.8 90 8.5 204.2 77.3 268.7 13.5 12.7 28.3 22.4 45.2 29.9 5.9 2.6 13.5 5.1 18.9 8.3 0.7 0.4 2.8 5.2 3.3 6.2 5.9 0.9-330.6 36.4-330.6 36.4z"/><path class="a" d="m287.9 1024l-0.3-0.9c-4.8-13.8-12.8-28.6-18.7-42.2-9.4-21.1-19.2-42-28.6-63.1-0.8-1.8-6.6-12.5-4.9-14.8 2.2-3.3 8-4.4 11.7-6.3 33.5-16.3 65.3-36.2 97.5-55 6.5-3.9 19.2-13.1 25.3-15.5l0.6 0.6c5.6 5.8 12.8 10.6 18.5 15.9 21.2 19.7 73.2 57.2 76.8 86.2-2.7 5.4-7.3 13.4-10.5 18.5-6.9 10.8-16.4 35-27.6 41.1 0.1 2.8 0.2 6 0.2 8.8q-4.1 7.2-8.3 14.3c-2.3 3.8-5.5 8.4-7.3 12.4z"/><path class="a" d="m481.1 932.2c21.3-7 26.7-8 38.5-29.3 1.5-2.8 2.4-6 2.5-9.2 4.2-0.1 13.1 13.8 15.9 17.5 47.4 62.7 125.4 94.8 203 92.7 11.8-0.3 22.8 0.9 34.3 1.1l103.8 2 73.6 1c13.9 0 28-0.3 41.8 0.1-2.1 1.6-4 3.1-6.3 4.4-6.7 4.1-14.2 6.2-21.5 8.8-0.5 0.2-1.9 2.1-2.3 2.7h-502.1c-4.9-8-11.2-19.1-16.3-26.4 10.5-18.6 21.5-36.9 31.2-55.9 1.8-3.5 2.9-5.6 3.9-9.5z"/><path class="a" d="m0 880c3.7 1.2 9.8 7.9 13.4 10.6 5.4 4.1 10.8 8.3 16.4 12.3 20.2 14.8 40.5 28.7 61.4 42.5 4.5 3 15.1 8.7 18.4 11.2 7.7 5.8 6.4 15.3 19.2 20.3 15.1 6 32.5 5.7 48.1 7.6 0.8 12 0.5 27.2 0.6 39.5h-116.2-61.3v-60.2z"/><path class="a" d="m194.5 1024v-59.8c0-15.6-0.6-31.4 1.9-46.8 0.9-5.1 2.1-22.7 4.5-25.7 1 0.2 13.7 10.7 14.3 11.8 18.2 36.8 34.3 75 51.4 112.3 1.2 2.7 2 5.5 2.6 8.2z"/><path class="a" d="m0 404c3.4 5.2 11 25.6 12.8 32.6 0.6 2.5 0.4 6.2-0.2 8.8-3.4 14.5-10.2 49.7-9 63.6-1.2 0.9-2.4 1.8-3.6 2.6z"/><path class="c" d="m3.6 509c0.1 3.6 0 6.9-0.1 10.5 0.1 2.6 0.6 5.5-0.5 7.8-1.4 1.1-1 0.7-3 0.9v-7.3-9.3c1.2-0.8 2.4-1.7 3.6-2.6z"/><path class="d" d="m432.1 1024c1-2.7 1.8-5.5 4-7.4 1.7-0.3 0.9-0.4 2.5 0.4 1.5 2.1 2 4.5 2.7 7z"/><path class="a" d="m467.8 343.6c-9.3-12.9-26.9-10.8-13.3-26 2.6-3 5.4-8.4 8.1-11.8 20.4 8.5 40.7 24.9 55.1 41.5 3 3.5 8.1 8.8 10.2 12.8-1 1.9-4 6.6-3.4 8.5 1.8 5.9 15 10.1 17.8 14.4 5.5 8.5 12.4 20.6 16.7 29.5 8 16.7 16.1 34.1 20.1 52.1 4.7 21.4 5.3 41.2 5.9 62.9 0.2 9 1 18.2 1.1 27.2q0.1 23.1-1.7 46.1c-1.9 26-4.1 52-14.6 76.5q-3.8 8.6-8.6 16.8c-1.8 3.2-5.1 8.3-6.4 11.5-2.2-1.5-2.2-2.9-2.9-5.6 0.6-6.2 0.9-9.8 0.1-16-11.2-7.3-12.2-1.3-21.1 6.5-3.6 3.2-6.9 7-10.7 10-23.7 18.7-47.7 23.3-76.1 29.7 5.5-8.3 12.8-15.8 17.8-24.5 4.3-7.4 4.6-12.7-3.2-17.2-3.5 1-4 2.9-8.7 1.8l-0.5-0.9c0.7-1.5 1.3-1.9 2.6-3 5.6-4 16-15.3 20.4-20.8 13.3-17 21.9-38.3 26.6-59.2 2.2-9.8 5-14.4 3.8-24.9-5.9-2.8-7.4-3-13.6-2-9-10.3-17.1-25.9-24.1-37.8-4.2-7.2-9.2-15.5-12.7-23-14.3-30.2-26.5-64-26-97.8 0.1-6.9 2.2-14 0.9-20.8-0.5-2.2-4.8-4.2-6.8-5.3-0.9-1-4.1-3.8-5.9-5.8 6.1-9.7 9.5-20.4 21.9-23 12.8-2.7 22.7 1.6 30.9-10.9l0.4-0.7c0.4-4.1 0.4-6.6-0.1-10.8z"/><path class="e" d="m458.7 688.5c-3.5 1-4 2.9-8.7 1.8l-0.5-0.9c0.7-1.5 1.3-1.9 2.6-3 2.2 1.8 3.8 1.8 6.6 2.1z"/><path class="a" d="m215.4 488.8c1 1.1-3.7 9.3-4 11.7-0.9 6.3 0.6 13.8 1.8 19.9-5.2 8.8-12.6 17.5-10.5 29.1 1 5.5 5.4 10.3 10.1 13.1-8.4 10.2-16 12.8-18.8 27.7-3.8 20.2 28.1 37.7 43.4 25.4 5.9-4.8 6.7-11.7 7.2-19 17.6-2.7 23.8-13.3 31.4-28.4 2.1-4.2 3.9-9.7 6.6-13.5 4.4-6.1 11-10.6 14.1-17.7 2.2-4.4 2.2-17.9 5-18.9 1.3 1.4 5.1 14.2 6.3 17.1 9.1 22.5 23.8 51.7 49.2 58.6 8.2-3.5 7.4-8.1 8.7-16.2 1 3.5 3.6 12.4 3.1 15.4-1.4 8.4-3.8 12.6-3.5 21.7 4.5 7.9 13.3 16.3 22.6 17.9-6.9 17.9-6.9 35.4 12.4 45.8 14.7 8 31.7 0.7 38.7-13.7 5.9-12 4.8-20.3 0.6-32.5l-3.3-2.5c3.2-3.4 7-6.4 10.2-10 7.3-8.1 13.9-19.6 16.6-30.1 0.8-3.2 1.4-9.1 1.8-12.6 2 1.3 4.5 2.7 5.9 4.6 4.3 6.2 9.4 13 12.9 19.6q-3.3 10.8-6.3 21.7c-11.5 35.3-41.2 57.7-70.9 75.2-5.1 3-4.2 11.5-0.4 13.7 7.9 4.5 24.3-3.4 33.8-3.8-5.9 8.8-11.4 12.6-19.3 19.8-4.1 3.4-7.7 10.3-12.1 13.1-10.7 6.8-25.8 9.4-38.1 10.8-15.2 1.8-15.9 3.8-16.7 18.1-1 1.8-1.9 2.8-3.2 4.4-11.8-6.4-10.9-8.3-14.8-21.2-4-2.1-8.4-3.1-12.8-3.5-25.4-2.5-51-14.9-71.1-30.2-4.3-3.3-10.8-8.5-16.1-9.4-2.4-0.4-5.8 4.2-6.9 5.7-0.5 5.1 0.4 19-3.3 21.7l-1.1-0.3c-5.6-6.2-4.1-31-6.7-39.5-0.8-2.5-0.8-4.6-2.8-6.8-4.5-5.1-9.7-9.4-14.2-14.5-11.3-12.9-21.8-27.8-28.5-43.7-3.4-8-6.9-15.8-9.2-24.2-0.1-0.3-1.9-1.4-2.3-1.6-0.1-2.6 1.9-12.5 2.6-15.6 4.4-20.8 8.6-41.4 15.7-61.5 4-11.5 10.4-27.8 16.4-38.4 1.4-2.7 15.9-2.4 19.8-2.5z"/><path class="b" d="m325.8 607.2c3.7-0.2 5.7 0 9.4 0.4 4.9 4.2 5.7 7.4 8 13.2 8.4 21.3 16.6 54.1-2.6 72-5.6 5.2-10.4 6.9-17.8 6.6-9.2-9.8-1.8-15 6.7-19.3 3.5-1.8 4.8-7.1 5.3-10.9 2.2-14.6-1.6-32-8.2-45-0.5-0.9-1.4-0.7-2.4-0.9-7.9 1.2-15.3 1.5-23.1 2.5-2.1 11.3-3.6 32.9 4.3 43 3.9 4.9 15.4 14.4 0.9 19.6-9.9 3.6-20.6-20.1-21.7-28.2-1.8-12.6-3.6-36.9 3.9-48.3 8.4-4.4 27.3-4.2 37.3-4.7z"/><path class="a" d="m262.2 335.6c10.4-1.7 26.6-7.1 36.9-10.2q23.4-7.1 47.1-12.8c6.3-1.5 15.8-4.3 21.9-4.8 3.8 13 7.6 26 11 39.1 3.9 14.9 4.4 31.1 10.5 45.3 2.9 6.9 9.3 8.5 15.9 6.4l0.4-0.1c1.1-1.7 6.5-6.1 8.8-9.5 1.8 2 5 4.8 5.9 5.8-7.2 1.7-6.8 3.3-10.4 9.2-17.8 39.6-36.8 79.4-51.2 120.3-1.2 3.3-7.2 6.3-7.9 10-0.6 3.3 1.6 7.3 1.3 10.7-1.4 8.1-3.3 16.2-4.7 24.4-10.6-7.4-20.8-30.7-25.4-43.2-14.4-38.3-19.1-79.6-13.7-120.1q1.9-12.9 5-25.5c1.5-5.7 4.6-15.9 5.4-21.4l0.1-0.7c-4.2-7.1-7.1-9.1-15.5-5.5-31.2 13.5-56.2 39-78.5 64-10.7 12.1-20.3 25.7-29.3 39.1-4 5.9-7.8 13.9-12.6 19.1-5.3 0.5-11.8 0.6-17.2 0.9q-0.6 0.5-1.1 1c-6 6.2-5.5 10 0.7 15.5l11-0.1c-2.9 7.7-7.2 16.1-10.4 24.7-8.9 23.8-15.4 48.3-19.7 73.3-2.4 14-4.1 26.7-4.4 40.8-0.1 4 1.6 12.3-2.3 13.7-4.5-0.7-10.6-4.7-13.5-8.2-60.9-72.5-19.3-167.5 33.8-230.6 2.8-3.4 7-7 6.6-11.6-0.4-5.3-4.4-7.5-9.3-7l-1.9-0.1c-1.2-0.8-2.2-1.4-3.7-1.5l-0.1-0.1 0.7-0.2c1.3-1.3 1.8-1.9 2.6-3.5 4-3.6 11.6-8.4 16.2-11.4 16.8-11.2 34.4-21.2 52.5-30 8.8-4.1 23.7-10.4 31.2-15.1 1.5 5.6 2.3 6.6 7.3 9.9z"/><path class="d" d="m405.9 398.5c1.1-1.7 6.5-6.1 8.8-9.5 1.8 2 5 4.8 5.9 5.8-7.2 1.7-6.8 3.3-10.4 9.2l-0.2-1.2c0.8-1.8 2.2-5-0.3-5.9-1.3 0.9-2.1 1.7-3.8 1.6z"/><path class="a" d="m602.2 581c8 7.1 17 18.6 28.3 17.5 4.6-0.5 8-2.8 13.7-3.2-0.4 6.6-2.6 13.4-3.7 20l-5.6 36.6c-1.2 7.6-2.9 15.2-3.6 22.8-2.2 24.5-3.6 48.6-1.7 73 6.8 86.2 36.2 181.7 114.1 229.2 3.2 2 17 9.1 17.7 11.4-8.9-2.6-33.8 0-44.8-1.5-30.6-4-60.7-8-88.5-22.9-6.6-3.5-14.1-6-17.8-12.9-16.2-29.4-23.6-60.4-29.5-93.2-1-5.7-1.5-11.5-2.5-17.4-1.8-8.8-2.3-17.1-2.3-26-0.2-24.6-2.7-48.8-0.6-73.5 0.6-6.5 0.2-13.5 1.2-20 4.4-4 12.4-7.4 17.6-11.2 31-22.6 37.1-70.6 11.6-99.2q-2.2-2.5-4.3-4.9c0.1-7.4 1.2-17.6 0.7-24.6z"/><path class="d" d="m576 814.4c3.7 6.9 4.6 14.8 3.1 22.6-0.2 1.1-0.7 1.9-0.8 3.4-1.8-8.8-2.3-17.1-2.3-26z"/><path class="a" d="m427.7 747.1c4.1-0.2 9.1 0 13-0.5 24.8-2.8 50.7-9.5 72.5-22 5.9-3.4 10.9-8.1 17.7-12-5.2 11.7-14.6 23.6-22.1 34-5.8 7.9-12.7 7.9-8.8 19.7 2.4 2.1 3.3 2.6 6 4.1 12.4-3.9 30.5-19.7 39.7-29.2 4.3-4.4 8.6-10.1 13.1-14.6l0.4-0.5c0.7 7.1-0.4 12.8-0.9 19.9q-0.8 10-0.8 20.1c0.6 51.4 5.5 121.5 27.3 168.8-7-3.3-11.2-8.3-16.6-13.8-32-32.5-51.9-72.7-74.4-111.7-3.4-5.8-7.8-11.5-11.6-17.2-2.7-3.8-6.3-11.5-10.3-13.5-1.9-1-4.2-1.2-6.2-0.4-4.7 1.7-7.4 7.4-4.5 11.6 3.3 4.9 6.7 9.6 9.9 14.5q14.2 22.1 26.7 45.2c1.7 3.3 4.9 8.4 6 11.9 1.1 1.6 2.1 3 3.3 4.5 0.9 9.4 1 21.9-3.2 30.6-5.2 12-10.8 14.6-22.8 17.9-6.4-10.9-14-21-22.6-30.2-4.8-5.2-10.2-9.8-14.7-15.3-1.5-1.8 2.5-5.6 3.7-6.8 2.9-3.1 8.6-7.5 9.7-11.6 1.3-3.7-1.7-10-5.9-10.1-7.5-0.1-15.5 11-21.4 15.1l-0.6 0.4c-6.9-6.3-13.8-12.5-20.9-18.6-3.5-2.9-19-15.3-20.6-17.4-0.6-5.7 14.3-14.2 16.9-19.9 0.8-1.7 1.1-3.6 1.4-5.3q-0.7-1.1-1.3-2.2c-6.9-11.3-16.2 1.1-23.4 6-6.1-4.7-9.4-8.5-16.6-12.5 2.9-6.7 5-11.1 7.3-18 10.9-0.1 20.2-3 30.6-6.1 9.8-2.8 16.8-9.2 25-14.9z"/><path class="a" d="m44 551.2l1.1 0.6c4.1 11 11.6 21.4 18.3 30.9 7.7 11 19.1 21.8 24.4 34.1 3.6 8.3 3.7 23 4.9 32 11 84.1 50.7 160.2 78.4 239.5 2.6 7.4 5.8 12 10 18.5-3.5 19.4-4.2 41-4 60.7-3.9 0-6 0-9.9-0.4-8.6-0.5-22.1-2.3-30.2-4.9-8-2.6-11-16.6-13.2-24.1-11.1-37.3-14.4-76.4-22.6-114.4-7.9-41.5-23.9-81.7-32.6-122.7-6.4-35.1-18.7-68.9-34.2-100.9-2-4-3.9-10-5.7-14.4 4.6-10.4 7.7-20.9 12.2-31.1 0.6-1.2 2.1-2.6 3.1-3.4z"/><path class="a" d="m109 643.9c4.4 3.1 8 7 12 10.1 7.4 5.5 16.5 9.8 25.8 9.9 13.5 0.2 11.9-10.4 11.6-19.9 6.1 6.4 8.5 14.3 13.3 21.2 7.4 10.5 15.3 20.3 23.8 30-3.1 15.6-3.4 26.6-3.9 42.3-1.2 43.3 3.1 83.4 14.8 125.2 1.9 5.2 3.7 10.9 5.4 16.1-10.1-6.6-16.5-8.9-27.6-2.9-2.3-4.2-6.1-16.5-8.1-21.9-4.4-12-9.5-23.6-13.8-35.6-3.5-10-8-19-11.8-28.7-9.7-24.3-18.4-48.9-26-73.9-2.8-9.2-5.6-18.3-8-27.6-3.8-14.8-4.7-29.4-7.5-44.3z"/><path class="a" d="m5.8 689c1.4-11 3.5-94 7.4-98.2 1.5 1.9 2.9 7.5 4 10 7.8 18 16.2 35.7 22.4 54.4 8.3 25.1 14.6 52.1 18.7 78.2-3.8 7.4-6.3 21.5-9 29.7-7.9 24-27.5 72.7-44.5 90.2 1.8-8.5 1.5-18 0.7-26.6-1.5-6.8-1.5-19.2-1.5-26.1l0.2-34.8-0.2-41.1c0-12.9-0.3-23 1.8-35.7z"/><path class="f" d="m5.8 689c1.1 3.4 1.7 6.8 1.7 10.4-0.1 39.7 0.4 79.4 0.1 119.1-0.1 3.3-0.1 5.5-2.1 8.2-1.5-6.8-1.5-19.2-1.5-26.1l0.2-34.8-0.2-41.1c0-12.9-0.3-23 1.8-35.7z"/><path class="a" d="m66 763.2c4.6 2.8 5.6 11.4 7.2 16.6 7.3 25.9 13.3 52.1 17.9 78.7 3.2 17.5 5.1 35.2 8.9 52.6 1.7 7.9 3.7 15.7 4.9 23.6-10-6.9-19.5-12.5-29.6-19.8q-20.1-13.6-39.6-28c-5.9-4.3-15.6-11.1-20.6-16 1.3-3.1 4.6-7.7 6.5-10.7q4.9-7.4 9.2-15.1c13.8-24.5 27.9-54.8 35.2-81.9z"/><path class="a" d="m243.8 734.6c5.6 2 11.3 7.5 16.8 10.7 20.4 11.5 40.2 18.2 63.2 22l0.9 7.3c-13.3 19.7-24.7 46.7-22.6 70.8l0.2 1c-2.6 3.9-27.1 17-32.7 19.9-1.6-5.8-6.6-14.5-9.2-22.6-9.1-28.5-15.7-58.8-17.9-88.6-0.3-5 0.8-15.4 1.3-20.5z"/><path class="a" d="m297 375.5c0.3 4.1-3.9 20-4.7 25.9-3.1 21.6-3.5 43.6-1 65.4 1 8.9 2.5 17.1 4.2 25.8 0.2 1.1-0.1 2.2-0.6 3.1l-0.6 0.1c-17.9-14.5-36.6-19.5-58.7-23.2-8.6-1-22.4-0.5-31.1 0.3 2.9-4.7 8.8-14.4 11.7-18.5 16.4-22.6 56.1-67.8 80.8-78.9z"/><path class="a" d="m667.8 488.2c6.5 2.7 13.4 4.7 20 7.3q36.6 14.7 72.5 31.1c2.9 1.3 9.7 2.9 11.4 5.4 0 0.2 0 0.4-0.1 0.5-3.3 6.5-73.1 21-84 23.5-8.7 1.6-19.4 3.4-27.7 6.5-5.3 2-10.9 8.5-15.7 11.8-4.5 3.2-9.1 5.9-13.9 8.7-5.1-2.3-8.5-5.6-12.4-9.4 10.3-10.3 23.8-3.1 26.7-25.5q3 0 5.9-0.1c7.1-0.4 16.1-2.2 21-7.8 2.1-2.4 3.3-5.4 3.6-8.6 0.6-8.5-5-27-6.1-35.9-0.4-2.7-1-4.4-1.2-7.5z"/><path class="a" d="m239.5 491c11.8-0.2 26.7 5.5 36.7 11.8 4.1 2.5 6.7 9.4 7.1 14.2 1.5 16.4-9.1 21-16.3 30.4l-0.6 0.8c-1.3-0.3 0.4-2.5-1.9-4.4-4.7-3.9-10.6-5.3-16.2-7.4-5.8-2.3-14.9-7.2-19.6-0.3-9.4 13.9 28.3 21 35.5 19.8l-6.7 12.4c-9.3 17.8-16.1 7.8-25.1 16.2-7.7 7.2 2.7 30.7-23 10.5 4-12.7 9.1-14.4 18.3-22.8 9.9-9.2-3-20.1-9.4-26.1 2.2-7.1 11.5-21.1 11.3-25.3-1.1-17.9-7.8-15.1 9.9-29.8z"/><path class="a" d="m120.6 287.8c6.4 0.4 13.6 2.1 20.1 3.1l48.3 7.8c9 1.5 18.6 2.2 27.4 4 12.2 2.4 25.8 4.2 37.8 7l-1 0.3c-4.3 1.2-8.5 3-12.6 4.9-11.6 5.4-23.7 10.5-35 16.6q-18.6 10.1-36.4 21.4c-4.1 2.6-14.5 10.6-18.6 11.1-0.2-0.2-14.1-38.9-14.7-41.6 1.3 1.6 2.6 3.1 3.8 4.8 5.6 2.4 9.4 4.3 15.6 4.9 5.5 0.3 11.9 0.8 17.3 0.5 3.5 0 7.9-0.2 11.2-0.9 1.9-4.4 7.5-5.2 11.6-3.7 4.8-3 4.1-4.8 4.1-10-2.3-2.1-3.5-3.1-5.4-5.6l-0.8 0.1c-5.6 0.7-10.4 2.3-15.7 3.3-7.3 1.4-16.7 0.9-23.9-0.1-8.2-6.8-17.3-16.2-28.2-16.3-2.5-4.8-3.5-6.4-4.9-11.6z"/><path class="d" d="m155.3 332.1c5.5 0.3 11.9 0.8 17.3 0.5-4.6 3.5-14 5-17.3-0.5z"/><path class="c" d="m183.8 331.7c1.9-4.4 7.5-5.2 11.6-3.7-3.6 1.4-7.8 3.2-11.6 3.7z"/><path class="a" d="m569.3 396.9l0.4 0.1c6.4 2.7 11.3 5.7 17.3 9.1l30.2 17.2q48.3 26.8 95 56.4l27.1 17.1c2.8 1.8 6.4 3.5 8.8 5.3l-0.7 0.3c-8.5-2.5-17.8-7.8-25.6-10.7-22.5-8.3-68.3-29.8-91.5-30.4-10.3 5.1-13.1-0.7-21.5-6.3-21.8-14.6-27.6-36.2-39.5-58.1z"/><path class="a" d="m596.5 466.6c3.7 1.3 13.4 9.3 17.2 11.5 8.7 4.9 15.9 2 24.3 0 1.3 0.5 4.6 2 5.5 2.6 7.9 5.5 16.9 43.6 12.7 49.8-5.1 3.7-16.2-1.7-21.6-2.9-1.6-0.4-3.7-0.6-5.3-0.7-5.6 1-6.4 4.4-8.3 9.1 2 4.6 7.5 10 6.2 14.7-3.9 2.6-19.2 6.1-24.1 4.5-0.3-0.7-0.6-56.4-2.9-62.6-0.4-1-3.7-24.6-3.7-26z"/><path class="a" d="m210.1 743.8c2.8 10.3 15.6 11.7 15.9 14.3 1.2 9 3.4 33.4 6 42.8 6.3 22 9.2 43.2 19 63.9 1.6 3.4 3 6.5 4.4 9.9-2.5 1-5.2 2.5-7.6 3.8-4 2.2-9.6 4.3-13.9 5.7-5-5.4-9.5-17.4-11.5-24.7-7.5-28.1-11.9-57.2-14-86.2-0.5-7.4-1.8-23.4 1.7-29.5z"/><path class="a" d="m410.1 444.8c1.6 1.5 2.4 8.8 2.9 11.4 6.4 31.7 19.7 60 34.7 88.3-6.3-1.8-15.6-7.4-23.3-10.4-8.8-2.6-17.4-5.4-26.5-7.1-4.1-0.7-18.6-0.8-21-2.5-1.2-4.5 29.1-70.9 33.2-79.7z"/><path class="a" d="m385.2 583.7c-2.1-8.2-6.4-14.1-5.3-23.3 1-8 10.4-18 18.8-16.2 11.4 2.4 28.3 7.4 38.1 13.6 2.9 1.8 5.5 4.1 7.6 6.8 3.9 4.9 4.5 10.8 3.7 16.8-0.4 3.3-3.8 14.6-6.1 16.3-6 1-14.2-4.9-19.6-7-8.7-3.3-15.9-6.3-23.9-10.9-10.6 0.7-10.6 5.7-12.1 14.2l-1-0.4q0-5-0.2-9.9z"/><path class="e" d="m385.2 583.7c6-2 2.8-6.5 13.3-3.9-10.6 0.7-10.6 5.7-12.1 14.2l-1-0.4q0-5-0.2-9.9z"/><path class="a" d="m385.4 593.6l1 0.4c8.3 1.9 36.9 14.9 44.4 19.2-21.8 13.4-7.8 15.2-4.6 33.1 2.3 12.2-9.9 26.2-21.8 14.9-9.9-9.4 0.2-20.8-0.1-31.5-0.4-8.6-17.2-14.7-23.6-19.9 3.5-7 4-8.3 4.7-16.2z"/><path class="a" d="m404.8 276c17.7 0.8 35.8 0.6 53.6 0.5l-0.6 2c-1.9 6.7-13.9 25-18.2 31.8-1.7 2.5-2.9 4.1-4.8 6.5-10.1-8.1-30.1-14.2-42.7-22.5 5.9-3.9 11.1-11.3 12.7-18.3z"/><path class="a" d="m316 242.7c5.5 0.9 42.1 21.2 47.1 25.3-5.1 6-7.3 9.2-11.5 15.8-6.6 0.3-17.5-0.7-24.3-1.2q-11.2-0.9-22.4-1.1c0.5-5.1 9-34.1 11.1-38.8z"/><path class="a" d="m387 311.7c4.3 2.1 8.4 5.2 12.6 7.5 12.8 7.2 24.8 15.6 37.6 22.7 2.1 1.2 8.8 3.2 9.3 5.1-6.7 2.7-14.2 1.9-22.5 6.3l-0.6 0.3c-12.1 7.3-13.8 15.5-22 24.6-0.8-5.1-1.1-10.4-2-15.5-0.6-4.3-2.1-8.5-2.7-12.7-2.2-13.1-6.6-25.5-9.7-38.3z"/><path class="a" d="m336.5 787.3c7.7 1.5 26 15.6 30.5 22.3-8.2 3-21.9 12.5-30 17.4-7.2 3.7-12.4 8.1-19.5 11.7 1.6-12.5 10.5-42.3 19-51.4z"/><path class="a" d="m25.9 475.4c0.3 0.3 0.8 0.7 0.9 1.1 1.8 10.5 3.9 21.1 6.5 31.4 2 7.8 2.9 15.2 3.9 23.2-11.5 15.8-13.2 20.6-19.7 38.7-0.8 2.1-1.6 4.8-3.5 5.9l-0.6-0.6c-1.1-5 1.2-18.4 1.6-24.4 1.2-7.9 0.5-17.2 1.7-25 2.7-15.9 4.2-30.7 5-46.7 1.7-2 2-2.2 4.2-3.6z"/><path class="a" d="m286 280.1h0.8c1.5 2.6-2.6 10.4 1.1 14.7 4.3 4.8 32.7 3.4 40.2 3.9-5 4.6-14 5.7-20.9 7.1-10.5 2.9-20.9 6.4-31.2 9.8-0.6-11.4-2.2-20-3.7-31.2q6.7-2.6 13.7-4.3z"/><path class="a" d="m597.4 629.3c8.8 7.8 7 21.6 6.8 32.4-0.3 16.6-10.1 26.9-21.9 37.4-1.3 0.8-3.8 2.7-5.3 1.9-0.4-3.3 7.6-16.5 9.3-21 3.6-9.2 6-18.3 8.6-27.8 2-7.7 2.1-15 2.5-22.9z"/><path class="g" d="m155 382.2c-0.8 1.6-1.3 2.2-2.6 3.5l-0.7 0.2 0.1 0.1c1.5 0.1 2.5 0.7 3.7 1.5l1.9 0.1c-0.7 0.2-2.8 0.5-3.3 0.9-13 10.7-26 21.5-38.3 32.9l-3.6-3.5c13.1-13.2 27.5-25.2 42.8-35.7z"/><path class="d" d="m381.9 273c1.7 0 2.2-0.1 3.9 0.3 1.3 1.3 0.9 0.5 1.2 2.4-1.7 5.3-10.3 10.2-14.9 12.9-0.8 0.4-1.4 0.7-2.2 1.2l-0.8-0.5c-1-4.6 9.1-14 12.8-16.3z"/><path class="e" d="m112.2 417.9l3.6 3.5c-4 4.2-7.1 5.9-12.3 8.1 2.9-4.8 4.7-7.5 8.7-11.6z"/><path class="e" d="m554.8 705.6c-0.8 1.4-4.3 5.3-6 5-0.7-3.3 1.6-7.8 3.1-10.6 0.7 2.7 0.7 4.1 2.9 5.6z"/><path class="b" d="m599.8 36.5c19.7 0.4 39.5-0.1 59.4 0.2 15.2 0.2 33.7-2.3 46.4 7.7 11.8 9.2 10.3 21.2 10.2 34.5v26.1l-0.1 89.2 0.1 61c0 9.5 0.4 20.5-0.5 29.9-0.4 3.8-4.9 9.3-7.4 12.3-12.9 12.5-22.5 10-39.2 10.2-3.1 0-6.3 0-9.4 0h-59.5c-0.5-11-0.1-22.9-0.2-34v-75.5l0.1-106.4c0-18.4-0.3-36.8 0.1-55.2z"/><path class="a" d="m640.1 76.7c8.3 0.8 26.7 0.3 35.4 0.2 0.6 7.9 0.4 16.9 0.4 24.9l0.1 36.2c-0.1 42.6-0.8 87.4-0.1 129.9h-36.1c-0.7-7.3-0.3-20.3-0.3-28l0.2-50.1c0.1-36.1-1.2-77.6 0.4-113.1z"/><path class="b" d="m737.1 307.4c1-16.9 0.2-42.7 0.2-60.1l-0.3-120.7v-37c0-8.4-0.4-16.9 0.7-25.3 4.3-31 33.6-27.6 56.8-27.7q29.1 0.3 58.2-0.1c3.6 3.8 3.3 23.1 3.3 29-0.1 31.8 0.2 63.7-0.5 95.5 0 2-0.1 3.2-1.1 5l-1.8 1.3c-2.1 16.7-15.7 25.2-31.9 24.9-14.1-0.2-28.5 0.5-42.7 0-1 8.1-0.5 26.6-0.6 35.4-0.3 26.6 0.4 53.3 0 79.9-13.4-0.2-26.9 0-40.3-0.1z"/><path class="d" d="m852.7 36.5c3.6 3.8 3.3 23.1 3.3 29-0.2 31.8 0.2 63.7-0.5 95.5 0 2-0.1 3.2-1.1 5l-1.8 1.3c-0.5-8.2-0.2-20.9-0.2-29.3l0.1-53.7c0.1-13.1-1-35.6 0.2-47.8z"/><path class="a" d="m777.2 77.1c11.3-0.1 24.6 0.2 35.7-0.3q-0.2 37.6 0.1 75.2h-31.6c-1.8 0-2.5 0.2-4.2-0.6-1.3-3.7-0.2-29.2 0.2-34.4z"/><path class="d" d="m777.4 117c0.5 7.1 0.5 13.6 1.9 20.6 0.7 3.5-0.4 10.7 0.8 13.7l1.3 0.7c-1.8 0-2.5 0.2-4.2-0.6-1.3-3.7-0.2-29.2 0.2-34.4z"/><path class="b" d="m908.8 36.7c26.8-0.7 56 0 83-0.2 0.3 19.8-0.3 39.4 0 59.2l-39.7 0.2-0.1-19.3c-11.9 0.5-25 0.4-37 0.5-0.6 8.4-0.2 19.5-0.2 28.1l0.2 46.8c11 0.3 22.2-0.2 33.2-0.1 12.4 0.2 23.4-1.5 33.2 7.8 6.4 6.1 10.1 12.3 10.1 21.4 0 34.4 0.7 68.8-0.4 103.1-0.1 3.8-4.9 11.3-7.6 14.1-7.3 7.7-15.2 9.2-25.1 9.3-16.6 0-33.1 0.1-49.7 0.1-9.4 0.1-19-2.5-25.8-9.5-11-11.4-8.2-35.1-7.8-49.9 13.1 0.3 26.4-0.3 39.8 0.1q-0.1 9.6 0.1 19.2l36.8-0.1c0.5-22.8 0.6-52.7 0-75.5-15.7 0.7-37.1 1.1-52.8-0.2-13.2-1.2-24-16-23.9-29.5 0.1-33.1-0.7-67.5 0.3-100.7 0.5-2.8 1.6-5.9 2.9-8.3 6.6-12.3 17.6-16 30.5-16.6z"/><path class="b" d="m326.3 38.8l22.2 0.2c0.1 43.9 1.1 90.9 0.1 134.6l-18-0.1c-0.7-3.5 0.1-9.4-0.3-12.4-0.9-9.2 2.1-57.8-0.7-63-4.9 23.6-8.6 51.3-12.3 75.6l-11.1-0.1c-1.7-15.7-5-31.6-7-47.3-1.4-10.6-4.2-21-5.5-31.7-0.8 1-0.4 22-0.4 25.3q0.1 26.8-0.3 53.7l-17.5-0.1v-134.6h22q4.3 27.8 9.4 55.5c1.1 6.1 3.4 20.3 5 25.7 4.5-25.6 11.1-56.2 14.4-81.3z"/><path class="d" d="m329.6 98.1c0.1-2.8 0.9-5.6 1.5-8.4l-0.1 57.2c0 5 0.3 22.4-0.4 26.6-0.7-3.5 0.1-9.4-0.3-12.4-0.9-9.2 2.1-57.8-0.7-63z"/><path class="b" d="m51.8 38.9c25.7 0 58.8-6.9 54.4 29.1-1.8 14.3 5 26.3-10.2 35.1 2.8 1.6 6.7 4 8.1 6.7 3.7 6.8 2.6 46.1 1.1 52.4-2.7 5.4-6.5 9.7-12.7 10.5-12.8 1.8-27.6 0.9-40.5 0.9-0.5-44.8 0.5-90-0.2-134.7z"/><path class="a" d="m70.9 112c15.1 0 17.1-1.7 16.6 16.5-0.2 6.4 1.1 21.2-1.6 26-3.9 2.7-10.1 1.9-14.9 1.8q-0.2-22.1-0.1-44.3z"/><path class="a" d="m70.9 56.1c3.3 0.1 11.3 0 13.5 1.6 4.7 3.6 3.5 31.3 1.3 35.2-4.9 2.6-9.3 1.9-14.9 1.9z"/><path class="b" d="m382.7 77.7c17.5-0.1 28.4 1.2 28.3 22.3-0.1 11 0 22.4-0.1 33.4q-15.7-0.3-31.5-0.2c0.2 5.2-1.2 22 1.4 23.6 14.9 9.2 11.8-11.4 11.7-14.5 4.5 0 14-0.4 17.7 0.3 0.9 1.1 0.6 2 0.6 3.7-0.1 14.1 0.9 25.8-17 27.7-13.4 1.5-31.5 1.4-32-16.6-0.5-17.4-0.1-35-0.3-52.3-0.2-18 0.6-26.3 21.2-27.4z"/><path class="a" d="m382.2 94.1c11.9-0.9 10.7 2.7 10.7 12.8 0 2.3 0.6 9-0.4 10.8l-1.5 0.2c-3.7-0.3-7.8-0.3-11.5-0.3-0.1-6.3-0.5-13.4 0-19.6 0.2-2.3 1.2-2.7 2.7-3.9z"/><path class="b" d="m229.6 78.1q4-0.2 8-0.3c25.7-0.4 26.4 10 25.8 32.3-0.2 7.4 0 15.4-0.2 22.9h-31.4c0 5.4-1.5 22.2 1.7 24 14.7 8.4 11.6-11.8 11.6-15.1l16.9 0.1 0.5 0.2c1.9 3.4-0.2 21.7-3.1 25.7-6.3 8.5-30.4 8.5-38.7 3.4-3.2-2-5.5-5.4-6.3-9.1-0.9-4.4-0.5-25.2-0.5-30.7 0.2-12.4-0.3-24.9 0.3-37.3 0.5-10.1 6-14.2 15.4-16.1z"/><path class="a" d="m234.8 94.1c2.6-0.2 9.3-0.5 9.8 2.8 0.5 3 1.1 18.6-0.1 20.6l-1.9 0.2-10.9-0.1c0-5.2-0.3-10.7-0.1-15.9 0.1-3.8 0.5-5.3 3.2-7.6z"/><path class="b" d="m480.5 78.1q1.4-0.1 2.8-0.1c8.2-0.4 19.4-1.3 25.7 4.8 6.5 6.3 5.2 16.8 5.2 25.1q0.1 12.7 0 25.5-15.7-0.3-31.5-0.3c0.2 5.2-0.9 22.2 1.8 23.9 14.5 8.6 11.7-11.5 11.6-14.5h16.5l1 0.3c1.7 3.8 0.6 17.5-1.3 21.7-1.6 3.4-5.1 7.6-9 8.5-9.4 2.2-21.4 2.8-30.4-1.4-2.7-1.4-5.8-4.3-6.4-7.3-2.8-12.8-1.1-28.6-1.5-41.9 0.1-9.2-0.2-18.3 0.2-27.5 0.6-10.7 5.3-14.6 15.3-16.8z"/><path class="a" d="m485.9 94.1c2.7-0.2 8.6-0.9 9.6 2.4 1.2 3.7 1.8 18.1 0.4 21.2l-1.3 0.2c-3.8-0.2-7.8-0.2-11.6-0.4-0.1-5.8-0.5-12.2-0.1-18 0.2-2.9 0.8-3.7 3-5.4z"/><path class="b" d="m183.5 78.4q9.2-0.1 18.4 0.1v23.1 71.9h-18.1l-0.4-5.6c-9.5 9.1-28.7 10.8-31.3-5.3-1.3-8.2-0.6-20-0.6-28.5v-55.6h18.5c0.4 21.2-0.3 42.7-0.1 63.9-0.1 3.5 0 7.2 0.3 10.6 0.2 3.2 2.8 5.9 6.1 5.7 4.6-0.2 7-2.4 7.1-7 0.2-8.4 0.1-16.6 0.1-24.9z"/><path class="b" d="m426 52.5h18.4q-0.2 12.9-0.1 25.9l11.5 0.1c0 5-0.1 10.2-0.2 15.1l-11.2 0.2c0 8-0.7 58.7 0.8 62.4 2.8 2.6 6.4 2 10.3 1.9v13c0.1 1.4 0.1 1.3-0.4 2.6-5.6 1.4-20.1 0-24.2-4.2-2-2.1-3.9-6.7-4.1-9.7-1.4-21.8 0-44.4-0.7-66.2-2.5 0.1-5.2-0.1-7.7-0.1l-0.1-15.8 7.7 0.3c0.3-8.4 0-17.1 0-25.5z"/><path class="b" d="m555.8 77.6c22.7-1.8 17.8 23.9 17.5 39.4h-17.8c-0.1-5.1 3.7-29.6-10.3-21.7-1.9 1.1-1.3 7.8-1.3 10.4 0.1 16.6 0.1 34 0.1 50.6v17.2h-18q-0.3-47.6 0-95.3 9-0.2 17.9 0.2l0.2 6c4.7-3.7 6.1-5.1 11.7-6.8z"/><path class="b" d="m119.5 39h18.5c-0.6 44.5-0.2 89.8-0.3 134.4-5.1 0.3-12.9 0.1-18.1 0.1-0.6-44.4 0-90-0.1-134.5z"/></svg>