<svg xmlns="http://www.w3.org/2000/svg" viewBox="32 0 36 100">
	<path d="M51 37C52 51 51 55 53 57S58 58 59 56 62 55 63 56 65 61 63 64 61 69 62 71L65 77C67 81 68 82 68 87S64 96 59 98 54 100 48 100 37 97 34 93 32 82 33 80L36 73C37 71 38 69 36 65S35 58 36 56 38 52 45 51L46 19C46 17 46 17 44 15 43.3 14.2 43.6 16 47.6 2A1 1 0 0152.6 3.7C51.6 6.2 50.1 4.8 51.3 7.1 52.7 10 53 12.8 51.6 13.9 50.1 15.1 50 16 50 18ZM49 61A1 1 0 0049 71 1 1 0 0049 61M43 80A1 1 0 0042 81V82A1 1 0 0043 83H44C46 83 44 84 48 84H50C54 84 52 83 54 83H55A1 1 0 0056 82V81A1 1 0 0055 80ZM44.2 13.5 43.6 13.3C42.9 13.1 43.4 11.6 44.1 11.8L44.7 12ZM45.1 11 44.4 10.8C43.6 10.6 44.1 8.9 45 9.2L45.6 9.4ZM46 8.3 45.3 8.1C44.4 7.9 44.9 6.2 45.8 6.5L46.5 6.7ZM46.8 5.5 46.2 5.3C45.4 5 45.9 3.4 46.7 3.7L47.3 3.9Z" fill="#83C49A"/>
</svg>