<svg xmlns="http://www.w3.org/2000/svg" viewBox="18.1 0 63.9 100">
	<path d="M50 0 54.8 27.3C53.1 29.2 52 31 52 32.3S52.2 34.3 54.8 36.7C52.3 38.8 51.8 40.1 51.7 42 52 49 52.1 57.4 54.5 61.4L51.6 60.4V89C51.7 90.1 52.5 90.3 52.5 91.1S51.8 91.9 51.5 93C51 95.4 51.8 95.5 50 100 48.2 95.5 48.9 95.4 48.5 93 48.3 92 47.5 91.9 47.5 91.1S48.4 90.1 48.4 89V60.4L45.5 61.3C48 57.4 48 49 48.3 42 48.3 40 47.7 38.8 45.2 36.7 47.5 34.5 48 33.6 48 32.4S47 29.2 45.3 27.3ZM42 10C43 15 39.2 19.7 38 24S37.5 29.8 38.9 30.8 42.9 31 43.6 30.7C43 32 41 33 40.2 34.2S39.5 36.5 40.2 38 42.2 41.5 45.8 45.1C40.8 43.2 37 42 34.1 36.3 35.1 35.3 35.9 34.6 36.3 33.6 35.4 33 34.3 34.2 33.5 34.6 32.3 31.6 32.9 27 34 25S35 22.6 37 20 41.2 13.6 42 10M58 10C59 14 61 17 63 20S65 23 66 25 67.7 31.5 66.5 34.6C65.4 33.8 64.4 33.1 63.7 33.5 63.6 34.4 65.1 35.4 66 36.3 63.3 41.6 59.3 43.3 54.4 45 57.7 41.5 59.2 39.4 59.8 38S60.5 35.4 59.7 34.2 57.3 32.1 56.4 30.7C57 31 59.5 31.7 60.9 30.9S63.4 28.2 62 24 57 15 58 10M82 25.4C72.2 42.5 65.3 58.1 61.7 55.6S70.6 40.8 82 25.4M80.3 39.5C72.1 54.6 62.4 73.9 59.2 71.6S70.3 53.3 80.3 39.5M77.2 55.7C71.3 66.3 59.9 87.8 57 85.8S70.1 65.4 77.2 55.7M18.1 25.6C31.7 43.5 41.5 53 38.4 55.6S28.9 44.6 18.1 25.6M19.7 39.5C26.9 49.9 44.4 69.2 40.8 71.6S25.9 50.3 19.7 39.5M22.8 55.7C30 65.3 46.1 83.8 43.1 85.8S28.6 65.9 22.8 55.7" fill="#DC7575"/>
</svg>