<?xml version="1.0" encoding="utf-8"?>
<!-- Generator: Adobe Illustrator 23.0.0, SVG Export Plug-In . SVG Version: 6.00 Build 0)  -->
<svg version="1.1" id="图层_1" xmlns="http://www.w3.org/2000/svg" xmlns:xlink="http://www.w3.org/1999/xlink" x="0px" y="0px"
	 viewBox="0 0 375 377" style="enable-background:new 0 0 375 377;" xml:space="preserve">
<style type="text/css">
	.st1{fill:#7A7A7A;}
</style>
<g>
	<g>
		<path class="st1" d="M187.5,8.9L343,98.7v179.6l-155.5,89.8L32,278.3V98.7L187.5,8.9 M187.5-0.3L24,94.1v188.8l163.5,94.4
			L351,282.9V94.1L187.5-0.3L187.5-0.3z"/>
	</g>
	<g>
		<path class="st1" d="M176.9,231.4c0-4.1,0.2-8.2,0.5-12.3c0.3-4.1,1.1-8.1,2.2-12.2c1.1-4,2.7-7.8,4.7-11.5
			c2-3.7,4.3-7.2,6.8-10.5c2.5-3.3,5.1-6.5,7.8-9.6c2.7-3.1,5.3-6.3,7.7-9.7c2.4-3.4,4.3-7.1,5.8-11c1.4-3.9,2.2-7.9,2.2-12
			c0-3.6-0.6-7.2-1.9-10.8s-3.2-6.6-5.9-9.1c-2.6-2.5-5.8-4.3-9.3-5.4c-3.6-1.1-7.2-1.7-10.8-1.7s-7.2,0.5-10.8,1.5
			s-6.7,2.8-9.3,5.2c-2.6,2.5-4.6,5.5-5.9,9c-1.3,3.5-1.9,7.1-1.9,10.9c0,0.2,0,0.3,0,0.5c0,0.2,0,0.3,0,0.5h-20c0-0.3,0-0.6,0-0.9
			c0-0.3,0-0.6,0-0.9c0-4.1,0.5-8.1,1.5-12.2c1-4,2.6-7.8,4.6-11.3c2-3.5,4.6-6.6,7.7-9.3c3.1-2.7,6.5-4.9,10.2-6.7
			c3.8-1.7,7.6-2.9,11.6-3.5c4-0.6,8.1-0.9,12.2-0.9c4.1,0,8.2,0.3,12.3,1c4.1,0.7,8,1.9,11.8,3.6c3.8,1.7,7.2,4,10.2,6.8
			s5.6,6,7.7,9.6s3.5,7.4,4.5,11.5c0.9,4.1,1.4,8.2,1.4,12.3c0,4.1-0.5,8.2-1.4,12.3c-0.9,4.1-2.2,8-3.8,11.8
			c-1.6,3.8-3.5,7.4-5.8,10.9c-2.2,3.5-4.6,6.9-7.2,10.1c-2.6,3.2-5.2,6.4-7.9,9.6c-2.7,3.2-5,6.6-6.9,10.2
			c-1.9,3.7-3.1,7.6-3.7,11.6c-0.6,4.1-0.9,8.2-0.9,12.3H176.9z M186.9,290.1c-2.4,0-4.8-0.3-7.2-1c-2.4-0.7-4.4-1.9-6.1-3.7
			c-1.7-1.8-2.9-3.8-3.6-6.1c-0.7-2.3-1-4.7-1-7.3c0-2.4,0.3-4.7,1-7c0.7-2.3,1.9-4.4,3.6-6.1c1.7-1.8,3.8-3,6.1-3.7
			c2.4-0.7,4.8-1,7.2-1c2.4,0,4.8,0.3,7.2,1c2.4,0.7,4.4,1.9,6.1,3.7c1.7,1.8,2.9,3.8,3.7,6.1s1.2,4.7,1.2,7c0,2.6-0.4,5-1.2,7.3
			s-2,4.4-3.7,6.1c-1.7,1.8-3.8,3-6.1,3.7C191.7,289.7,189.3,290.1,186.9,290.1z"/>
	</g>
</g>
</svg>
