<svg xmlns="http://www.w3.org/2000/svg" viewBox="32 0 36 100">
	<path d="M51 37c1 14 0 18 2 20s5 1 6-1 3-1 4 0 2 5 0 8-2 5-1 7l3 6c2 4 3 5 3 10s-4 9-9 11-5 2-11 2-11-3-14-7-2-11-1-13l3-7c1-2 2-4 0-8s-1-7 0-9 2-4 9-5l1-32c0-2 0-2-2-4-.7-.8-.4 1 3.6-13a1 1 0 015 1.7c-1 2.5-2.5 1.1-1.3 3.4 1.4 2.9 1.7 5.7.3 6.8C50.1 15.1 50 16 50 18ZM49 61a1 1 0 000 10 1 1 0 000-10M43 80a1 1 0 00-1 1v1a1 1 0 001 1h1c2 0 0 1 4 1h2c4 0 2-1 4-1h1a1 1 0 001-1V81a1 1 0 00-1-1Zm1.2-66.5-.6-.2c-.7-.2-.2-1.7.5-1.5l.6.2Zm.9-2.5-.7-.2c-.8-.2-.3-1.9.6-1.6l.6.2ZM46 8.3l-.7-.2c-.9-.2-.4-1.9.5-1.6l.7.2Zm.8-2.8-.6-.2c-.8-.3-.3-1.9.5-1.6l.6.2Z" fill="#83C49A"/>
</svg>