<svg xmlns="http://www.w3.org/2000/svg" viewBox="0 0 64 100">
	<path d="M32 0 36 20C34 21 33 22 33 23 44 23 47 33 54 33 46 36 44 26 32 26 20 26 18 36 10 33 17 33 20 23 31 23 31 22 30 21 28 20ZM32 29A1 1 0 0132 49 1 1 0 0132 29M32 31A1 1 0 0032 47 1 1 0 0032 31M32 33A1 1 0 0132 45 1 1 0 0132 33M41 36H64C62 38 55 36 51 42 51 40 51 39 50 38L41 39ZM23 39 14 38C13 39 13 40 13 42 9 36 2 38 0 36H23ZM5 39C10 40 12 44 12 47S15 55 18 57 21 59 24 60 28 61 28 64V70C26 69 28 66 24 65S18 63 15 61 9 54 8 51 7 44 7 43 6 40 5 39M59 39C58 40 57 42 57 43S57 48 56 51 52 59 49 61 44 64 40 65 38 69 36 70V64C36 61 37 61 40 60S43 59 46 57 52 50 52 47 54 40 59 39M33 48V52C39 52 42 50 47 48 44 53 39 53 34 56 34 57 35 59 36 59 35 59 34 61 34 62V77C34 80 34 80 40 81 35 82 34 82 34 84 34 85 35 85 39 86 35 87 34 87 34 88 34 89 34 90 35 91L32 100 29 91C30 90 30 89 30 88 30 87 29 87 25 86 29 85 30 85 30 84 30 82 29 82 24 81 30 80 30 80 30 77V62C30 61 29 59 28 59 29 59 30 57 30 56 25 53 20 53 17 48 22 50 25 52 31 52V48Z" fill="#DC7575"/>
</svg>