<svg xmlns="http://www.w3.org/2000/svg" viewBox="0 0 64 100">
	<path d="M32 0l4 20c-2 1-3 2-3 3 11 0 14 10 21 10-8 3-10-7-22-7-12 0-14 10-22 7 7 0 10-10 21-10 0-1-1-2-3-3Zm0 29a1 1 0 010 20 1 1 0 010-20m0 2a1 1 0 000 16 1 1 0 000-16m0 2a1 1 0 010 12 1 1 0 010-12m9 3H64c-2 2-9 0-13 6 0-2 0-3-1-4l-9 1ZM23 39l-9-1c-1 1-1 2-1 4-4-6-11-4-13-6H23ZM5 39c5 1 7 5 7 8s3 8 6 10 3 2 6 3 4 1 4 4v6c-2-1 0-4-4-5s-6-2-9-4-6-7-7-10-1-7-1-8-1-3-2-4m54 0c-1 1-2 3-2 4s0 5-1 8-4 8-7 10-5 3-9 4-2 4-4 5V64c0-3 1-3 4-4s3-1 6-3 6-7 6-10 2-7 7-8M33 48V52c6 0 9-2 14-4-3 5-8 5-13 8 0 1 1 3 2 3-1 0-2 2-2 3V77c0 3 0 3 6 4-5 1-6 1-6 3 0 1 1 1 5 2-4 1-5 1-5 2 0 1 0 2 1 3l-3 9-3-9c1-1 1-2 1-3 0-1-1-1-5-2 4-1 5-1 5-2 0-2-1-2-6-3 6-1 6-1 6-4V62c0-1-1-3-2-3 1 0 2-2 2-3-5-3-10-3-13-8 5 2 8 4 14 4V48Z" fill="#DC7575"/>
</svg>