<svg xmlns="http://www.w3.org/2000/svg" viewBox="0 4 100 92">
	<path d="M58 4C56 16 56 25 57 33S59 43 61 48 63 52 64 58C59 52 53 55 49 57 46 54 46 52 45 49 47 47 47 45 47 43 47 38 42 36 38 34 41 33 43 32 44 29S46 23 48 18 52 10 58 4M63 41 69 43 72 50 78 53 83 65 84 66C84 67 82 70 81 71 79 70 77 68 75 66L72 67 67 65 67 58ZM79 76C81 76 82 76 83 77L86 80C88 82 88 82 91 82 95 87 95 87 100 90L99 91H82C81 87 79 84 76 81ZM67 72 72 71C74 73 75 74 76 76L73 81C76 84 78 87 79 91H63C62 90 61 88 61 87ZM62 71C61 73 60 75 59 76 58 78 58 81 58 83 55 89 51 93 45 96 47 93 49 87 49 83S48 77 47 73 46 67 46 66C49 68 51 68 53 65 54 67 55 68 57 69L60 68ZM26 86C26 82 26 78 28 75L35 67C36 70 37 73 38 77S41 83 43 87C42 89 41 90 40 91H22M0 91C4 89 7 86 10 83L11 80C13 78 17 76 20 75L24 76 23 86 19 91ZM16 70 23 53 27 52 32 43 35 41 38 46C35 51 34 58 34 64L24 71ZM43 48C44 53 45 55 48 58 46 60 46 60 45 63 45 74 45 74 43 78 43 74 42 71 41 68S38 61 38 56 39 50 40 47C42 46 44 44 44 41 46 44 45 46 43 48M56 56Q58 55 60 57C60 60 59 64 58 67 56 66 55 65 54 64 56 62 56 62 56 56" fill="#68A6CD"/>
</svg>