<svg xmlns="http://www.w3.org/2000/svg" viewBox="0.6 4.3 100 91.6">
	<path d="M23.1 15.1C28.1 16.4 29.6 15.5 32.6 14S40 11.4 41.5 11.3C45.5 9.4 48.3 6.3 50 4.3 51.4 6.2 54.6 9.3 58.2 11.2 61.3 11.6 66.7 13.4 69.4 14.9S75.7 15.5 76.8 15.1C75.8 16.3 73 17.9 70 17.5S66 16 62.1 15.8 56.8 16.2 55.2 16.9L50 10.8 44.8 16.9C42.7 16 42.4 15.7 38 15.8S31 17.7 28.5 17.6 24.1 16.1 23.1 15.1M48 23.5C39.8 19.7 31.9 19.8 25.7 22S18.9 28.2 14.3 20C13.8 26.2 16.2 26.3 13.9 30 12.8 29.6 12.3 28.9 11.6 27.9 10 30.8 5.3 29.4 3.4 28.9 6.6 33 6 35.4 5.5 36.6 8.5 37.6 8.8 38 8.9 38.5 9.3 40.4 2.4 40 .3 40.4 2.2 41 3.4 41.6 4.8 42.9S6.7 44.4 6.5 47.5 6.8 56 9 59.6 11.8 63.5 13.8 65.7 12.3 71 10.2 72.2C15.1 72.5 15.7 70.2 19.1 70.4 23.1 71.1 18.4 73.7 17.2 74.3 21.5 77.8 18.7 76.4 20.2 81.9 23.6 79.5 24.5 78.6 28.6 78.9 28.6 76.9 27.6 76.4 27.6 74.6 32.6 75.4 31.5 79.3 35.6 80.9 35.3 80 35.1 78.8 35.8 77.4 37.2 74.7 38.1 77.7 47.9 73.4 45.9 71.9 44 70.1 42.5 68.3 28.8 74.1 14.2 62.9 13.5 50.2S19.5 32.2 24.1 29.2 37.5 25.2 43.5 28.4C44.8 26.7 46.4 25 48 23.5M85.7 20C86.1 25.4 83.8 27.2 86.2 29.9 87.1 29.7 87.8 28.9 88.4 27.8 90.1 30.3 91 30 96.6 28.9 93.4 33.4 93.9 34.9 94.5 36.6 93.2 37.4 91.2 37.5 91.2 38.5S92.3 40.4 99.7 40.3C94.5 42.3 93.2 44.5 93.5 47.1S93.5 55 91.1 59.5 85.8 64.7 85.6 66.8 86.6 70.3 89.8 72.2C86.8 73.1 83.9 70.4 80.9 70.5S80.1 73.2 82.9 74.2C79.9 76.9 80.3 75.2 80 81.9 73.7 77.9 73.8 78.9 71.4 78.9 71.3 77.2 72.5 75.9 72.5 74.3 66.8 76 70.5 77.1 64.4 81 65.6 77.9 64.1 76 61.3 75.9 58.5 75.8 44.8 73.8 39.1 57.8 38 53.4 36.2 53.6 30.6 54.1 33 51.1 39.1 50.3 39.2 47.1 38.1 47.6 37.4 47.8 35.9 48 35.2 45.3 32.9 43 30.5 40.7 36.2 39.6 36 39.9 37.9 37.2 39 38.6 39.7 39 40.7 39.6 40.9 37.2 40 34.4 37.6 30.6 39.3 31.2 39.7 31.1 41.6 32.1S42.5 31.5 47.7 26.9 61.1 20.1 67.3 20.6 77.6 23.2 78.6 23.9 82.3 27 85.7 20M65 26.4A1 1 0 0066.4 69.5 1 1 0 0065 26.4M55.8 31C58.7 33.9 57 31.8 62.4 30.6 59.6 34.9 58.9 39.2 59.4 39.4S60.6 38.6 62.1 37.2C64 41 67 39.7 69.5 40.7 65.1 45.3 64.7 45.6 64.2 48.2 62.4 48.2 60.9 46.8 60.7 47.1S61.4 49.1 64.4 50.8 67.5 52.4 69.4 54.1C58.1 52.5 63.6 56.5 57.4 65.1 55 64 52.9 62.2 51.8 60.3 51.3 59.4 52 59.2 52.9 57.4S58.2 46.6 51.4 35.8C51.9 33.9 54.7 31.5 55.8 31M50 89 55.4 82.7C66 87.9 66.8 78.7 76.2 85 67.8 83.7 70.6 86.8 58.4 89.1 55.9 90.4 52.9 92.2 50 95.9 47.2 92.4 45.1 91.1 41.7 89.1 30.5 87 31.1 83.4 24 85 33 78.6 34.4 88 44.7 82.7Z" fill="#83C49A"/>
</svg>