<svg xmlns="http://www.w3.org/2000/svg" viewBox="0 7.8 100 84.5">
	<path d="M32.5 7.8Q33.6 17.3 36.7 20.2 34.2 22.9 32.5 28.5 30.8 22.9 28.3 20.2 31.4 17.3 32.5 7.8M67.5 7.8Q68.6 17.3 71.7 20.2 69.2 22.9 67.5 28.5 65.8 22.9 63.3 20.2 66.4 17.3 67.5 7.8M0 42.6C12.3 49.7 16.5 40.8 20.5 37.4S24.2 34 30.5 30.9 40.5 24.2 40.7 22.5 41.6 20.1 42.3 20.3 44.1 21.6 43.3 25.7 45.1 32.3 46 32.8C48.8 29.4 48.5 21.7 50 18.7 51.5 21.7 51.2 29.4 54 32.8 54.9 32.3 57.5 29.6 56.7 25.6S57 20.5 57.7 20.3 59.1 20.9 59.3 22.6 63.3 27.9 69.5 30.9 76.4 35 79.5 37.4 87.7 49.7 100 42.6C92.4 51.9 86.9 51.6 81.4 48.4S77.5 44.3 73 44.3H65C63.1 44.3 61.5 45 61 46.3 60.5 45 59.8 44.5 57.2 44.5S52.6 45.3 52.6 46.2 54.5 48 55.6 48.5C50.9 50.4 51.3 52.2 53 52.8 52.1 67.8 51.3 89.6 50 92.3 48.7 89.6 48.1 67.9 46.9 52.8 48.7 52.2 49.1 50.4 44.4 48.5 45.5 48 47.1 47.1 47.1 46.2S45.2 44.5 42.8 44.5 39.5 45 39 46.3C38.5 45 36.9 44.3 35 44.3H27C22.5 44.3 24.1 45.3 18.6 48.4S7.6 51.9 0 42.6M35 43.2C36.9 43.2 38.5 42.9 39 41.6 39.4 42.9 40.4 43.2 42.8 43.2S48 42.9 48 39.1 45.4 34.8 45 34.7 40.5 33.8 41 38.1C38.6 37.4 36.3 38.5 35.8 40.6 30.1 37 27.5 39.9 23 43.2ZM77.2 43.2C71.4 39 69.1 37.4 63.8 40.7 63.6 39.3 62 37.2 58.6 38.1 59.4 34.3 55.9 34.5 55 34.6S51.7 35.3 51.7 39.1 54.6 43.2 57.2 43.2 60.5 42.9 61 41.6C61.5 42.9 63.1 43.2 65 43.2ZM32 46C34.7 49.7 34.2 51.5 34 55L32 82 30 55C29.8 51.6 29.3 49.7 32 46M32 46C34.7 49.7 34.2 51.5 34 55L32 82 30 55C29.8 51.6 29.3 49.7 32 46M68 46C70.7 49.7 70.2 51.5 70 55L68 82 66 55C65.8 51.6 65.3 49.7 68 46M68 46C70.7 49.7 70.2 51.5 70 55L68 82 66 55C65.8 51.6 65.3 49.7 68 46" fill="#DB7575"/>
</svg>