<svg xmlns="http://www.w3.org/2000/svg" viewBox="15.5616 0 69 100">
	<path d="M50 0C61 12 55 33 55 47S66.8 64.2 57 66 57 95 50 100C43 95 53 68 43 66S45 61 45 47 39 12 50 0M50 6C42 20 55 53 44 62 47 63 49 64 50 66 51 64 53 63 56 62 45 53 58 20 50 6M62 14C61.7 20.5 65.5 20.8 67.1 24.1S66.4 30.2 69.1 30 76.6 26.6 81 25.1 84.8 26.9 83.6 28.1 79.9 37.7 79.5 43.9 79.4 48.4 77.5 49.9 78.9 52.7 79.7 53 81.8 53.9 80.6 58 79.1 62.1 77.9 62.4 75.2 61.6 74.5 63.2 76.5 65.1 75.5 67.2 70.5 74.6 68.2 75.7 64.8 76.8 66.7 79.3 72.1 86.7 72 88.8C67.9 86.3 64.4 81.5 63.2 80.2S61.1 79.3 60.6 80.2 61.1 81.5 58.8 83.7 55.1 86.7 55.1 85 54.4 72.9 55.5 71.1 58 67.9 61 67.2 65.9 62.4 65.7 59.9 67.5 58.3 68.5 57.1 70.4 53.8 69.4 52.4 67 50.7 67.3 49.8 69.3 49.2 69.3 46.1 70.6 38 71.8 35.9 71.7 34 67.2 35.9 61.5 39.7 61.4 38.4 62.2 34.4 60 31.6 59.1 28.5 58.9 22.6 61.4 14.3 62 14M67.5 40.2C66.7 45.9 61.9 48.9 60.4 49.2 61 46.4 62.5 42.7 67.5 40.2M38 14C38.7 14.4 41.2 16.7 41 22.6S42 28.7 39.8 31.6 38.7 37.3 38.5 38.4 37.2 37.7 32.9 35.9 27.1 33.7 28.1 35.9 30.6 42.6 30.6 46.1 32.3 48.7 32.6 49.8 31.4 51.1 30.5 52.4 30.2 55.9 31.5 57.1 34.4 57.5 34.2 59.9 36 66.6 39 67.2 43.4 69.6 44.4 71.1 44.8 83.2 44.8 85 43.2 85.5 41.1 83.7 39.8 81.1 39.2 80.2 37.8 78.9 36.7 80.2 30.6 87.4 27.9 88.8C27.8 86.3 31.6 81.8 33.3 79.3S34.2 77.2 31.8 75.7 25.5 69.6 24.4 67.2 26.2 65.1 25.4 63.2 23 62.8 21.7 62.4 20.6 62.1 19.3 58 19.7 53.3 20.3 53 23.7 51.7 22.8 50.4 20.4 49.9 20.5 46.1 19 31.4 16.5 28.1 16.9 24.5 18.9 25 27.3 29.5 30.5 30 31.3 26.9 32.7 24.2 38.3 20 38 14M32.4 40.1C38.1 43.2 39 47.2 39.6 49.3 37.3 48.5 33.1 45.1 32.4 40.1" fill="#68A6CD"/>
</svg>