<svg xmlns="http://www.w3.org/2000/svg" viewBox="7 0 86 100">
	<path d="M50 0C51 5 51 5 54 7L52 10V25L54 27 52 29C53 32 54 32 55 33S58 34 59 33 62 27 60 24C63 27 64 31 64 33 64 35 60 40 59 42 59 40 56 39 54 40S52 44 53 45 56 47 57 47C53 59 54 62 53 78S51 96 47 100C47 83 47 66 45 53 44 48 42 46 40 43 41 43 42 43 43 44 42 40 39 37 36 34 35 33 37 27 42 21 40 25 40 28 41 30S43 33 44 33 47 33 48 29L46 27 48 25V10L46 7C49 5 49 5 50 0M82 7 77 21 70 26 72 16ZM18 7 28 16 30 26 23 21ZM93 25 86 33C82 37 83 39 83 41 84 47 82 56 77 62L84 77 69 68 63 71 57 80 59 61 62 59 72 65C72 63 70 59 68 56 73 51 74 44 72 36ZM91 37C94 50 93 58 91 65 87 68 88 74 88 79L83 67C88 62 92 54 91 37M84 80C77 79 77 79 74 81 70 84 67 85 61 87 58 88 58 89 56 91L57 83C63 82 69 79 73 75ZM44 91C42 89 42 88 39 87 33 85 30 84 26 81 23 79 23 79 16 80L27 75C31 79 37 82 43 83ZM43 80 37 71 31 68 16 77 23 62C18 56 16 47 17 41 17 39 18 37 14 33L7 25 28 36C26 43 26 50 32 56 30 59 28 63 28 65L38 59 41 61ZM12 79C12 74 13 68 9 65 7 58 6 50 9 37 8 54 13 63 17 67" fill="#DC7575"/>
</svg>